<svg version="1.1" xmlns="http://www.w3.org/2000/svg" viewBox="0 0 2895.5698581148254 1415.6740733946438" width="8686.709574344477" height="4247.0222201839315" filter="invert(93%) hue-rotate(180deg)">
  <!-- svg-source:excalidraw -->
  
  <defs>
    <style class="style-fonts">
      @font-face {
        font-family: "Virgil";
        src: url("https://excalidraw.com/Virgil.woff2");
      }
      @font-face {
        font-family: "Cascadia";
        src: url("https://excalidraw.com/Cascadia.woff2");
      }
      @font-face {
        font-family: "Assistant";
        src: url("https://excalidraw.com/Assistant-Regular.woff2");
      }
    </style>
    
  </defs>
  <rect x="0" y="0" width="2895.5698581148254" height="1415.6740733946438" fill="#ffffff"></rect><g transform="translate(1071.5273060488812 790.2581016272666) rotate(0 73.828125 21.59999999999991)"><text x="0" y="34.762499999999996" font-family="Cascadia, Segoe UI Emoji" font-size="36px" fill="#6741d9" text-anchor="start" style="white-space: pre;" direction="ltr" dominant-baseline="alphabetic">ACCOUNT</text></g><g transform="translate(1486.8190499815323 796.5733623905076) rotate(0 42.1875 21.59999999999991)"><text x="0" y="34.762499999999996" font-family="Cascadia, Segoe UI Emoji" font-size="36px" fill="#6741d9" text-anchor="start" style="white-space: pre;" direction="ltr" dominant-baseline="alphabetic">USER</text></g><g transform="translate(2466.011643494251 787.6067754333112) rotate(0 73.828125 21.59999999999991)"><text x="0" y="34.762499999999996" font-family="Cascadia, Segoe UI Emoji" font-size="36px" fill="#6741d9" text-anchor="start" style="white-space: pre;" direction="ltr" dominant-baseline="alphabetic">PAYMENT</text></g><g transform="translate(1800.8011478180717 797.606775433313) rotate(0 73.828125 21.59999999999991)"><text x="0" y="34.762499999999996" font-family="Cascadia, Segoe UI Emoji" font-size="36px" fill="#6741d9" text-anchor="start" style="white-space: pre;" direction="ltr" dominant-baseline="alphabetic">PRODUCT</text></g><g transform="translate(2168.7529347876757 790.0201406504343) rotate(0 52.734375 21.59999999999991)"><text x="0" y="34.762499999999996" font-family="Cascadia, Segoe UI Emoji" font-size="36px" fill="#6741d9" text-anchor="start" style="white-space: pre;" direction="ltr" dominant-baseline="alphabetic">ORDER</text></g><g transform="translate(220.23208553043435 651.7254891729285) rotate(0 185.185546875 54.18305084745771)"><text x="0" y="87.20084745762709" font-family="Cascadia, Segoe UI Emoji" font-size="90.30508474576268px" fill="#2f9e44" text-anchor="start" style="white-space: pre;" direction="ltr" dominant-baseline="alphabetic">GATEWAY</text></g><g stroke-linecap="round" transform="translate(82.25820210622146 570.8442471656331) rotate(0 309.2518076749594 140.35274348325083)"><path d="M32 0 C168.61 -1.28, 305.4 -1.08, 586.5 0 M32 0 C245.5 0.88, 458.96 0.54, 586.5 0 M586.5 0 C608.84 1.63, 617.62 10.56, 618.5 32 M586.5 0 C607.88 1.32, 616.3 11.65, 618.5 32 M618.5 32 C619.01 104.4, 620.44 174.78, 618.5 248.71 M618.5 32 C617.18 79.05, 616.24 125.55, 618.5 248.71 M618.5 248.71 C620.32 268.39, 607.11 282.27, 586.5 280.71 M618.5 248.71 C618.85 271.78, 609.04 280.28, 586.5 280.71 M586.5 280.71 C420.17 278.44, 252.22 279.35, 32 280.71 M586.5 280.71 C379.71 282.22, 172.07 282.14, 32 280.71 M32 280.71 C12.09 279.09, -1.74 271.8, 0 248.71 M32 280.71 C9.75 280.45, 1.57 268.58, 0 248.71 M0 248.71 C0.27 165.74, -1.61 86.03, 0 32 M0 248.71 C-1.42 199.56, -1.55 151.28, 0 32 M0 32 C-0.45 11.01, 11.88 -1, 32 0 M0 32 C1.93 12.94, 8.53 -0.78, 32 0" stroke="#2f9e44" stroke-width="2" fill="none"></path></g><g stroke-linecap="round" transform="translate(2408.0784695798584 734.4736015189214) rotate(0 127.07613261321353 76.81467717664418)"><path d="M32 0 C75.33 -1.43, 116.63 -2.1, 222.15 0 M32 0 C81.39 -0.15, 130.63 0.2, 222.15 0 M222.15 0 C244.72 0.95, 253.38 10.67, 254.15 32 M222.15 0 C242.98 2.28, 255.67 12.61, 254.15 32 M254.15 32 C254.28 65.15, 254.26 102.45, 254.15 121.63 M254.15 32 C253.16 60.65, 252.53 87.21, 254.15 121.63 M254.15 121.63 C253.8 141.86, 245.37 152.95, 222.15 153.63 M254.15 121.63 C252.33 144.61, 242.96 155.91, 222.15 153.63 M222.15 153.63 C179.26 153.87, 137.57 153.16, 32 153.63 M222.15 153.63 C180.98 152.73, 139.21 153.27, 32 153.63 M32 153.63 C12.09 153.95, 0.19 141.93, 0 121.63 M32 153.63 C9.64 152.73, -1.6 141.71, 0 121.63 M0 121.63 C0.66 100.98, -0.51 79.65, 0 32 M0 121.63 C0.1 96.24, -1.41 71.93, 0 32 M0 32 C1.19 12.36, 10.58 -0.01, 32 0 M0 32 C-2.08 9.89, 12.31 2, 32 0" stroke="#6741d9" stroke-width="2" fill="none"></path></g><g stroke-linecap="round" transform="translate(1750.4546086865578 740.6802841274834) rotate(0 127.07613261321353 76.81467717664418)"><path d="M32 0 C85.74 -1.43, 142.18 1.06, 222.15 0 M32 0 C78.31 1.33, 123.68 0.34, 222.15 0 M222.15 0 C241.52 1.83, 252.63 11.49, 254.15 32 M222.15 0 C245.65 1.39, 254 9.35, 254.15 32 M254.15 32 C252.96 62.59, 252.5 93.73, 254.15 121.63 M254.15 32 C253.91 49.25, 254.52 68.76, 254.15 121.63 M254.15 121.63 C252.26 144.65, 244.53 152.62, 222.15 153.63 M254.15 121.63 C254.24 144.26, 243.85 153.28, 222.15 153.63 M222.15 153.63 C161.52 150.4, 98.29 154.06, 32 153.63 M222.15 153.63 C160.86 152.82, 99.88 153.5, 32 153.63 M32 153.63 C9.18 151.89, 0.98 141.59, 0 121.63 M32 153.63 C9.88 153.26, -1.14 142.79, 0 121.63 M0 121.63 C-1.34 97.03, 1.02 71.17, 0 32 M0 121.63 C0.31 99.94, -0.35 79.46, 0 32 M0 32 C-0.84 12.33, 12.21 -1.85, 32 0 M0 32 C2.16 12.92, 11.68 1.7, 32 0" stroke="#6741d9" stroke-width="2" fill="none"></path></g><g stroke-linecap="round" transform="translate(1409.0560434570286 738.7836254317613) rotate(0 127.07613261321353 76.81467717664418)"><path d="M32 0 C97.91 -0.95, 166.91 -0.75, 222.15 0 M32 0 C84.43 1.77, 138.06 0.77, 222.15 0 M222.15 0 C243.49 -0.44, 256.14 11.99, 254.15 32 M222.15 0 C245.43 2.06, 253.34 8.75, 254.15 32 M254.15 32 C253.97 61.14, 251.62 88.62, 254.15 121.63 M254.15 32 C253.68 56.75, 254.11 82.79, 254.15 121.63 M254.15 121.63 C253.47 141.37, 244.91 153.18, 222.15 153.63 M254.15 121.63 C256.43 141.16, 244.03 154.68, 222.15 153.63 M222.15 153.63 C170.71 151.74, 123.87 152.25, 32 153.63 M222.15 153.63 C160.42 154.29, 97.4 153.67, 32 153.63 M32 153.63 C9.63 152.74, -0.78 141.57, 0 121.63 M32 153.63 C9.41 151.97, -0.02 143.14, 0 121.63 M0 121.63 C-1.04 91.34, 1.91 62.49, 0 32 M0 121.63 C0.42 87.18, 1.38 51.5, 0 32 M0 32 C-0.01 8.86, 9.99 1.43, 32 0 M0 32 C2 9.63, 9.26 -1.58, 32 0" stroke="#6741d9" stroke-width="2" fill="none"></path></g><g stroke-linecap="round" transform="translate(1017.5576169158169 737.2950951027638) rotate(0 127.07613261321353 76.81467717664418)"><path d="M32 0 C72.67 -0.22, 113.09 -0.99, 222.15 0 M32 0 C81.91 -0.91, 132.38 0.09, 222.15 0 M222.15 0 C244.8 1.69, 255.94 9.96, 254.15 32 M222.15 0 C241.57 0.51, 252.12 11.16, 254.15 32 M254.15 32 C253.14 61.19, 255.4 89.57, 254.15 121.63 M254.15 32 C254.94 49.8, 253.2 68.99, 254.15 121.63 M254.15 121.63 C253.7 144.94, 241.92 154.1, 222.15 153.63 M254.15 121.63 C255.2 142.12, 242.77 153.33, 222.15 153.63 M222.15 153.63 C176.64 156.05, 133.74 155.42, 32 153.63 M222.15 153.63 C151.54 153.41, 80.28 153.54, 32 153.63 M32 153.63 C9.27 152.54, -1.44 142.95, 0 121.63 M32 153.63 C10.84 154.38, -0.27 142.36, 0 121.63 M0 121.63 C0.71 101.68, -0.98 76.88, 0 32 M0 121.63 C-0.58 95.74, -1.44 69.52, 0 32 M0 32 C1.43 12.41, 9.77 -1.22, 32 0 M0 32 C-1.58 10.19, 9.81 -1.07, 32 0" stroke="#6741d9" stroke-width="2" fill="none"></path></g><g stroke-linecap="round" transform="translate(2090.9899282631714 737.9203797788464) rotate(0 127.07613261321353 76.81467717664418)"><path d="M32 0 C82.29 0.63, 136.25 2.29, 222.15 0 M32 0 C82.72 1.08, 132.3 1.31, 222.15 0 M222.15 0 C242.78 -1.67, 254.59 8.9, 254.15 32 M222.15 0 C243.98 0.7, 254.46 8.67, 254.15 32 M254.15 32 C252.27 51.87, 253.61 74.55, 254.15 121.63 M254.15 32 C254.56 67.13, 254.84 101.93, 254.15 121.63 M254.15 121.63 C254.63 143.87, 242.76 153, 222.15 153.63 M254.15 121.63 C253.85 141.43, 241.6 155.87, 222.15 153.63 M222.15 153.63 C175.82 155.41, 131.03 154.29, 32 153.63 M222.15 153.63 C162.9 152.08, 103.88 152.06, 32 153.63 M32 153.63 C10.65 153.78, 0.65 142.73, 0 121.63 M32 153.63 C10.07 152.32, -0.54 145.04, 0 121.63 M0 121.63 C-2.02 92.28, 0.38 65.08, 0 32 M0 121.63 C-0.33 95.82, 0.88 68.14, 0 32 M0 32 C-1.22 9.3, 10.25 -0.74, 32 0 M0 32 C-1.07 12.86, 8.37 -1.07, 32 0" stroke="#6741d9" stroke-width="2" fill="none"></path></g><g stroke-linecap="round"><g transform="translate(1152.9677949503623 736.2950951027638) rotate(0 93.13272325218779 -157.20478901521165)"><path d="M-0.26 -1.17 C30.64 -53.68, 154.91 -262.75, 186.01 -315.01 M1.81 0.83 C32.48 -51.54, 154.29 -261.38, 184.93 -313.79" stroke="#e03131" stroke-width="2" fill="none"></path></g><g transform="translate(1152.9677949503623 736.2950951027638) rotate(0 93.13272325218779 -157.20478901521165)"><path d="M180.49 -289.19 C180.09 -298.24, 182.59 -306.33, 184.93 -313.79 M180.49 -289.19 C181.07 -296.12, 182.47 -302.91, 184.93 -313.79" stroke="#e03131" stroke-width="2" fill="none"></path></g><g transform="translate(1152.9677949503623 736.2950951027638) rotate(0 93.13272325218779 -157.20478901521165)"><path d="M165.72 -297.79 C170.5 -303.8, 178.2 -308.86, 184.93 -313.79 M165.72 -297.79 C170.22 -302.36, 175.64 -306.81, 184.93 -313.79" stroke="#e03131" stroke-width="2" fill="none"></path></g></g><mask></mask><g stroke-linecap="round"><g transform="translate(1533.2021043317188 733.9568949975187) rotate(0 -78.71133587236363 -154.57768370114763)"><path d="M0.28 -0.78 C-26.04 -52.31, -130.96 -258.07, -157.13 -309.61 M-1.04 1.42 C-27.56 -49.91, -131.91 -256.54, -157.92 -308.31" stroke="#e03131" stroke-width="2" fill="none"></path></g><g transform="translate(1533.2021043317188 733.9568949975187) rotate(0 -78.71133587236363 -154.57768370114763)"><path d="M-139.71 -291.18 C-147.6 -296.89, -153.69 -302.42, -157.92 -308.31 M-139.71 -291.18 C-143.07 -294.41, -147.71 -299.65, -157.92 -308.31" stroke="#e03131" stroke-width="2" fill="none"></path></g><g transform="translate(1533.2021043317188 733.9568949975187) rotate(0 -78.71133587236363 -154.57768370114763)"><path d="M-154.98 -283.48 C-157.27 -292.04, -157.79 -300.37, -157.92 -308.31 M-154.98 -283.48 C-154.94 -288.34, -156.13 -295.33, -157.92 -308.31" stroke="#e03131" stroke-width="2" fill="none"></path></g></g><mask></mask><g transform="translate(1279.0498391052922 345.1418623750001) rotate(0 84.375 21.59999999999991)"><text x="0" y="34.762499999999996" font-family="Cascadia, Segoe UI Emoji" font-size="36px" fill="#e03131" text-anchor="start" style="white-space: pre;" direction="ltr" dominant-baseline="alphabetic">DATABASE</text></g><g transform="translate(2453.598278277129 339.96859280924264) rotate(0 84.375 21.59999999999991)"><text x="0" y="34.762499999999996" font-family="Cascadia, Segoe UI Emoji" font-size="36px" fill="#e03131" text-anchor="start" style="white-space: pre;" direction="ltr" dominant-baseline="alphabetic">DATABASE</text></g><g transform="translate(2129.786347830479 344.27861672208337) rotate(0 84.375 21.59999999999991)"><text x="0" y="34.762499999999996" font-family="Cascadia, Segoe UI Emoji" font-size="36px" fill="#e03131" text-anchor="start" style="white-space: pre;" direction="ltr" dominant-baseline="alphabetic">DATABASE</text></g><g transform="translate(1777.5245369480342 346.69198193920556) rotate(0 84.375 21.59999999999991)"><text x="0" y="34.762499999999996" font-family="Cascadia, Segoe UI Emoji" font-size="36px" fill="#e03131" text-anchor="start" style="white-space: pre;" direction="ltr" dominant-baseline="alphabetic">DATABASE</text></g><g stroke-linecap="round"><g transform="translate(2227.379186965094 741.5435297803974) rotate(0 -0.9483293478597261 -173.54427065834398)"><path d="M0.71 -0.93 C0.25 -58.7, -1.45 -288.95, -1.96 -346.74 M-0.38 1.19 C-1.07 -56.94, -2.45 -290.7, -2.94 -348.68" stroke="#e03131" stroke-width="2" fill="none"></path></g><g transform="translate(2227.379186965094 741.5435297803974) rotate(0 -0.9483293478597261 -173.54427065834398)"><path d="M5.78 -325.25 C1.05 -333.88, 0 -343.08, -2.94 -348.68 M5.78 -325.25 C3.56 -330.76, 1.21 -337.59, -2.94 -348.68" stroke="#e03131" stroke-width="2" fill="none"></path></g><g transform="translate(2227.379186965094 741.5435297803974) rotate(0 -0.9483293478597261 -173.54427065834398)"><path d="M-11.32 -325.12 C-9.78 -333.9, -4.58 -343.15, -2.94 -348.68 M-11.32 -325.12 C-9.26 -330.69, -7.33 -337.55, -2.94 -348.68" stroke="#e03131" stroke-width="2" fill="none"></path></g></g><mask></mask><g stroke-linecap="round"><g transform="translate(2542.2245304545486 728.2669189103603) rotate(0 -0.9483293478599535 -166.90596522332544)"><path d="M0.52 0.18 C0.27 -55.32, -1.3 -276.79, -1.79 -332.61 M-0.66 -0.78 C-1.04 -56.61, -2.21 -278.58, -2.68 -334.11" stroke="#e03131" stroke-width="2" fill="none"></path></g><g transform="translate(2542.2245304545486 728.2669189103603) rotate(0 -0.9483293478599535 -166.90596522332544)"><path d="M6.03 -310.67 C3.84 -316.92, 3.14 -324.47, -2.68 -334.11 M6.03 -310.67 C5.09 -315.66, 1.29 -322, -2.68 -334.11" stroke="#e03131" stroke-width="2" fill="none"></path></g><g transform="translate(2542.2245304545486 728.2669189103603) rotate(0 -0.9483293478599535 -166.90596522332544)"><path d="M-11.07 -310.56 C-8.53 -316.91, -4.51 -324.49, -2.68 -334.11 M-11.07 -310.56 C-8.23 -315.52, -8.26 -321.89, -2.68 -334.11" stroke="#e03131" stroke-width="2" fill="none"></path></g></g><mask></mask><g stroke-linecap="round"><g transform="translate(1887.877280431285 732.0602363017993) rotate(0 -7.586634782878491 -163.11264783188608)"><path d="M0.39 -0.26 C-1.95 -54.45, -12.15 -271.06, -14.88 -325.37 M-0.87 -1.45 C-3.26 -55.95, -13.57 -273.16, -15.67 -327.04" stroke="#e03131" stroke-width="2" fill="none"></path></g><g transform="translate(1887.877280431285 732.0602363017993) rotate(0 -7.586634782878491 -163.11264783188608)"><path d="M-6.1 -303.94 C-8.68 -308.7, -9 -315.75, -15.67 -327.04 M-6.1 -303.94 C-9.41 -311.58, -12.09 -318.05, -15.67 -327.04" stroke="#e03131" stroke-width="2" fill="none"></path></g><g transform="translate(1887.877280431285 732.0602363017993) rotate(0 -7.586634782878491 -163.11264783188608)"><path d="M-23.18 -303.19 C-21.86 -308.18, -18.27 -315.4, -15.67 -327.04 M-23.18 -303.19 C-21.19 -310.94, -18.58 -317.65, -15.67 -327.04" stroke="#e03131" stroke-width="2" fill="none"></path></g></g><mask></mask><g stroke-linecap="round" transform="translate(865.578243438418 108.05952541004945) rotate(0 970.1409228605778 594.602501108096)"><path d="M32 0 C780.78 -1.78, 1529.09 -1.28, 1908.28 0 M32 0 C519.95 -5.03, 1008.79 -4.45, 1908.28 0 M1908.28 0 C1929.45 -1.37, 1939.69 9.9, 1940.28 32 M1908.28 0 C1930.72 -0.61, 1940.55 10.42, 1940.28 32 M1940.28 32 C1938.01 375.14, 1937.98 717.69, 1940.28 1157.21 M1940.28 32 C1937.11 356.97, 1937.49 680.93, 1940.28 1157.21 M1940.28 1157.21 C1940.97 1178.85, 1929.52 1188.62, 1908.28 1189.21 M1940.28 1157.21 C1938.57 1178.6, 1931.29 1188.4, 1908.28 1189.21 M1908.28 1189.21 C1516.13 1185.22, 1124.71 1184.23, 32 1189.21 M1908.28 1189.21 C1521.79 1185.78, 1134.47 1185.54, 32 1189.21 M32 1189.21 C10.63 1189.91, -0.42 1178.29, 0 1157.21 M32 1189.21 C11.68 1188.37, 1.34 1178.35, 0 1157.21 M0 1157.21 C-2.69 843.99, -2.68 530.3, 0 32 M0 1157.21 C-4.26 838.96, -4.7 520.23, 0 32 M0 32 C-0.88 9.68, 12.34 0.95, 32 0 M0 32 C-0.58 9.49, 12.22 0, 32 0" stroke="#2f9e44" stroke-width="2" fill="none"></path></g><g stroke-linecap="round"><g transform="translate(702.4655956065319 725.9431466288229) rotate(0 79.8799692159051 -0.6837090114345301)"><path d="M0.95 0.28 C27.67 -0.18, 133.12 -1.49, 159.56 -1.65 M-0.01 -0.62 C26.59 -0.38, 132.04 0.08, 158.5 -0.27" stroke="#2f9e44" stroke-width="2" fill="none"></path></g><g transform="translate(702.4655956065319 725.9431466288229) rotate(0 79.8799692159051 -0.6837090114345301)"><path d="M135.04 8.35 C141.05 5.77, 145.72 3.77, 158.5 -0.27 M135.04 8.35 C143.48 4.24, 152.67 2.65, 158.5 -0.27" stroke="#2f9e44" stroke-width="2" fill="none"></path></g><g transform="translate(702.4655956065319 725.9431466288229) rotate(0 79.8799692159051 -0.6837090114345301)"><path d="M134.99 -8.75 C141.17 -7.24, 145.85 -5.14, 158.5 -0.27 M134.99 -8.75 C143.48 -6.77, 152.69 -2.27, 158.5 -0.27" stroke="#2f9e44" stroke-width="2" fill="none"></path></g></g><mask></mask><g stroke-linecap="round" transform="translate(1990.4133834548143 1032.6922089529694) rotate(0 255.07146858591773 93.84704976274315)"><path d="M32 0 C163.35 -0.95, 292.25 0.23, 478.14 0 M32 0 C192.17 0.43, 351.59 0.18, 478.14 0 M478.14 0 C498.06 1.08, 508.91 11.16, 510.14 32 M478.14 0 C501.44 -1.68, 509.68 12.25, 510.14 32 M510.14 32 C511.13 59.21, 509.97 89.79, 510.14 155.69 M510.14 32 C509.24 69.18, 509.22 105.25, 510.14 155.69 M510.14 155.69 C511.53 176.7, 497.56 187.2, 478.14 187.69 M510.14 155.69 C510.25 177.76, 500.32 189.46, 478.14 187.69 M478.14 187.69 C359.5 189.2, 240.19 190.07, 32 187.69 M478.14 187.69 C301.62 186.37, 125.78 186.56, 32 187.69 M32 187.69 C11.09 187.63, -0.01 177.21, 0 155.69 M32 187.69 C9.08 186.51, 0.16 176.72, 0 155.69 M0 155.69 C1.42 126.16, -1.25 101.62, 0 32 M0 155.69 C-0.39 130.35, -1.72 105.35, 0 32 M0 32 C0.77 10.68, 11.11 -0.33, 32 0 M0 32 C-0.83 11.38, 11.77 -0.18, 32 0" stroke="#6741d9" stroke-width="2" fill="none"></path></g><g transform="translate(2110.730113919869 1083.2252357482917) rotate(0 136.0735951217032 34.834840351156004)"><text x="0" y="56.06232119014173" font-family="Cascadia, Segoe UI Emoji" font-size="58.05806725192671px" fill="#6741d9" text-anchor="start" style="white-space: pre;" direction="ltr" dominant-baseline="alphabetic">RABBITMQ</text></g><g stroke-linecap="round"><g transform="translate(2202.1708290733104 890.7184670042056) rotate(0 -145.58324386271715 70.98687097438233)"><path d="M0.16 -1.01 C-15.96 22.83, -47.09 142.71, -95.69 143.16 C-144.29 143.61, -258.76 25.13, -291.45 1.66 M-1.22 1.07 C-17.54 24.61, -47.82 141.41, -96.34 141.66 C-144.86 141.91, -259.76 25.63, -292.36 2.59" stroke="#1e1e1e" stroke-width="2" fill="none"></path></g><g transform="translate(2202.1708290733104 890.7184670042056) rotate(0 -145.58324386271715 70.98687097438233)"><path d="M-268.91 11.24 C-279.65 8.88, -285.03 4.13, -292.36 2.59 M-268.91 11.24 C-275.19 9.54, -279.87 7.5, -292.36 2.59" stroke="#1e1e1e" stroke-width="2" fill="none"></path></g><g transform="translate(2202.1708290733104 890.7184670042056) rotate(0 -145.58324386271715 70.98687097438233)"><path d="M-279.95 24.3 C-286.44 16.88, -287.57 7.1, -292.36 2.59 M-279.95 24.3 C-283.53 19.49, -285.58 14.34, -292.36 2.59" stroke="#1e1e1e" stroke-width="2" fill="none"></path></g></g><mask></mask><g stroke-linecap="round"><g transform="translate(2247.891186650031 890.7184670042056) rotate(0 145.58324386271715 69.78370366973195)"><path d="M-0.65 -0.33 C17.54 23, 60.8 138.99, 109.41 139.21 C158.02 139.42, 260.93 24.1, 291.03 0.97 M1.21 -1.55 C19.31 22.02, 60.89 140.44, 109.05 140.55 C157.22 140.67, 260.09 22.26, 290.2 -0.87" stroke="#1e1e1e" stroke-width="2" fill="none"></path></g><g transform="translate(2247.891186650031 890.7184670042056) rotate(0 145.58324386271715 69.78370366973195)"><path d="M278.96 21.46 C282.21 16.12, 285.83 6.74, 290.2 -0.87 M278.96 21.46 C282.96 12.61, 287.24 4.68, 290.2 -0.87" stroke="#1e1e1e" stroke-width="2" fill="none"></path></g><g transform="translate(2247.891186650031 890.7184670042056) rotate(0 145.58324386271715 69.78370366973195)"><path d="M267.23 9.01 C274.24 7.79, 281.67 2.47, 290.2 -0.87 M267.23 9.01 C275.58 4.85, 284.32 1.67, 290.2 -0.87" stroke="#1e1e1e" stroke-width="2" fill="none"></path></g></g><mask></mask><g stroke-linecap="round" transform="translate(10 10) rotate(0 1437.7849290574127 697.8370366973219)"><path d="M32 0 C863.03 -6.2, 1693.24 -5.89, 2843.57 0 M32 0 C1034.4 -3.76, 2037.59 -3.1, 2843.57 0 M2843.57 0 C2864.48 -0.02, 2875.19 12.33, 2875.57 32 M2843.57 0 C2864.1 1.34, 2876.4 10.99, 2875.57 32 M2875.57 32 C2875.53 374.78, 2876.06 718.2, 2875.57 1363.67 M2875.57 32 C2879.92 309.93, 2879.37 587.37, 2875.57 1363.67 M2875.57 1363.67 C2873.97 1385.04, 2863.99 1394.37, 2843.57 1395.67 M2875.57 1363.67 C2876.02 1385.49, 2863.7 1397.96, 2843.57 1395.67 M2843.57 1395.67 C2212.38 1392.57, 1583.41 1392.53, 32 1395.67 M2843.57 1395.67 C1947.26 1397.56, 1050.85 1396.92, 32 1395.67 M32 1395.67 C10.04 1394.42, 1.8 1386.46, 0 1363.67 M32 1395.67 C11.99 1396.02, 1.45 1385.51, 0 1363.67 M0 1363.67 C3.45 1036.5, 2.68 709.48, 0 32 M0 1363.67 C-2.38 1006.69, -2.9 650.49, 0 32 M0 32 C-1.98 10.23, 9.2 -0.82, 32 0 M0 32 C-1.7 9.47, 12.54 2.08, 32 0" stroke="#1e1e1e" stroke-width="2" fill="none"></path></g></svg>